<svg id="Layer_1" data-name="Layer 1" xmlns="http://www.w3.org/2000/svg" xmlns:xlink="http://www.w3.org/1999/xlink" viewBox="0 0 501 79.35"><defs><style>.cls-1,.cls-2{fill:#62738d;}.cls-1,.cls-4{stroke:#fff;stroke-miterlimit:10;}.cls-3{clip-path:url(#clip-path);}.cls-4{fill:none;}.cls-5{clip-path:url(#clip-path-2);}.cls-6{clip-path:url(#clip-path-3);}.cls-7{clip-path:url(#clip-path-4);}.cls-8{clip-path:url(#clip-path-5);}.cls-9{clip-path:url(#clip-path-6);}.cls-10{clip-path:url(#clip-path-7);}</style><clipPath id="clip-path"><path class="cls-1" d="M16.82,2.48A26.37,26.37,0,0,0,8.35,7.92,27,27,0,0,0,2.63,16,23.07,23.07,0,0,0,.5,25.81V50.28A23,23,0,0,0,2.63,60.1a26.35,26.35,0,0,0,5.78,8.07,26.9,26.9,0,0,0,8.53,5.45,28.22,28.22,0,0,0,18.4.8,26.53,26.53,0,0,0,7.07-3.32,27.37,27.37,0,0,0,5.66-5A23.73,23.73,0,0,0,52,59.68a4,4,0,0,0,.34-1.61,4,4,0,0,0-1.18-2.77A4,4,0,0,0,48.07,54a4.81,4.81,0,0,0-2.19.53,3.07,3.07,0,0,0-1.51,1.71,18.17,18.17,0,0,1-6.51,8.06,17.9,17.9,0,0,1-10.55,3.16,18.44,18.44,0,0,1-7.06-1.39,19.37,19.37,0,0,1-5.84-3.69A17.3,17.3,0,0,1,10.49,57,15.56,15.56,0,0,1,9,50.28V25.81a16.16,16.16,0,0,1,1.4-6.67,16.41,16.41,0,0,1,3.87-5.45A19.15,19.15,0,0,1,20.14,10a18.51,18.51,0,0,1,7.17-1.39,17.87,17.87,0,0,1,10.33,3.15,18,18,0,0,1,6.62,8,4,4,0,0,0,3.81,2.35,4,4,0,0,0,3.14-1.28A4.15,4.15,0,0,0,52.34,18a5.55,5.55,0,0,0-.12-1.12,1.57,1.57,0,0,0-.45-.91,25.63,25.63,0,0,0-4-6.25A26.92,26.92,0,0,0,35.11,1.62,27,27,0,0,0,27.31.5a27.66,27.66,0,0,0-10.49,2"/></clipPath><clipPath id="clip-path-2"><path class="cls-1" d="M191.12,2.58A26.4,26.4,0,0,0,182.65,8a27,27,0,0,0-5.71,8.06,23.11,23.11,0,0,0-2.13,9.83V50.28a23,23,0,0,0,2.13,9.82,26.32,26.32,0,0,0,5.77,8.07,27,27,0,0,0,8.52,5.45,28.25,28.25,0,0,0,20.73,0,26.25,26.25,0,0,0,8.46-5.45,26.82,26.82,0,0,0,5.71-8.07,23,23,0,0,0,2.13-9.82V41A3.82,3.82,0,0,0,227,38.1a4.24,4.24,0,0,0-3-1.18H211.12a4.12,4.12,0,0,0-3,1.23,3.94,3.94,0,0,0,0,5.72,4.23,4.23,0,0,0,3,1.17h8.63v5.24a16.32,16.32,0,0,1-1.4,6.67,16.7,16.7,0,0,1-3.87,5.45,19.29,19.29,0,0,1-5.77,3.68,18.78,18.78,0,0,1-14.18,0,19,19,0,0,1-5.82-3.68A17.14,17.14,0,0,1,184.79,57a15.6,15.6,0,0,1-1.46-6.67V25.92a16.12,16.12,0,0,1,1.4-6.67,16.31,16.31,0,0,1,3.87-5.45,19.27,19.27,0,0,1,5.82-3.69,18.69,18.69,0,0,1,7.17-1.39,17.59,17.59,0,0,1,10.26,3.15,19,19,0,0,1,6.66,8,3.83,3.83,0,0,0,1.63,1.76,4.36,4.36,0,0,0,2.18.59,4,4,0,0,0,3.14-1.28,4.12,4.12,0,0,0,1.12-2.78,4.57,4.57,0,0,0-.34-1.71,23.13,23.13,0,0,0-4-6.41,27.54,27.54,0,0,0-12.72-8.22,27,27,0,0,0-8-1.18,27.56,27.56,0,0,0-10.47,2"/></clipPath><clipPath id="clip-path-3"><path class="cls-1" d="M257.74,4.4a27.49,27.49,0,0,0-8.46,5.46,26.23,26.23,0,0,0-5.71,8,23.17,23.17,0,0,0-2.13,9.85V69.34a3.76,3.76,0,0,0,1.29,2.89,4.24,4.24,0,0,0,3,1.18,4.19,4.19,0,0,0,3-1.18A3.84,3.84,0,0,0,250,69.34V27.73a16.38,16.38,0,0,1,1.4-6.69,16.85,16.85,0,0,1,3.87-5.46A19.52,19.52,0,0,1,261,11.89a18.78,18.78,0,0,1,14.18,0A19.27,19.27,0,0,1,281,15.58,17.64,17.64,0,0,1,284.92,21a15.94,15.94,0,0,1,1.45,6.69V69.34a3.76,3.76,0,0,0,1.29,2.89,4.4,4.4,0,0,0,6,0,3.84,3.84,0,0,0,1.23-2.89V27.73a23.17,23.17,0,0,0-2.13-9.85,25.91,25.91,0,0,0-5.77-8,28.27,28.27,0,0,0-8.52-5.46,27.48,27.48,0,0,0-20.73,0"/></clipPath><clipPath id="clip-path-4"><path class="cls-1" d="M343.58,2.79a4.12,4.12,0,0,0-3,1.23,3.88,3.88,0,0,0-1.23,2.83,3.82,3.82,0,0,0,1.23,2.89,4.2,4.2,0,0,0,3,1.18h18.15V69.34A3.76,3.76,0,0,0,363,72.23a4.26,4.26,0,0,0,3,1.18,4.19,4.19,0,0,0,3-1.18,3.81,3.81,0,0,0,1.24-2.89V10.92h18.26a4.13,4.13,0,0,0,3-1.23,3.91,3.91,0,0,0,1.23-2.84A3.82,3.82,0,0,0,391.54,4a4.21,4.21,0,0,0-3-1.18Z"/></clipPath><clipPath id="clip-path-5"><path class="cls-1" d="M411.32,4a3.55,3.55,0,0,0-1.49,2.88V69.34a3.51,3.51,0,0,0,1.56,2.89A5.78,5.78,0,0,0,415,73.41a5.72,5.72,0,0,0,3.66-1.18,3.57,3.57,0,0,0,1.49-2.89V6.85A3.49,3.49,0,0,0,418.57,4,5.76,5.76,0,0,0,415,2.79,5.7,5.7,0,0,0,411.32,4"/></clipPath><clipPath id="clip-path-6"><path class="cls-1" d="M492.49,5.14,468.23,59.6,444,5.14a4.14,4.14,0,0,0-1.62-1.81,4.28,4.28,0,0,0-2.28-.65,3.75,3.75,0,0,0-3,1.29A4.16,4.16,0,0,0,436,6.75a3.88,3.88,0,0,0,.33,1.6l28,63a3.92,3.92,0,0,0,3.89,2.46,4.78,4.78,0,0,0,1.67-.32,4,4,0,0,0,2.23-2.14l28-63a3.88,3.88,0,0,0,.33-1.6A4.16,4.16,0,0,0,499.39,4a3.79,3.79,0,0,0-3-1.29,4,4,0,0,0-3.89,2.46"/></clipPath><clipPath id="clip-path-7"><path class="cls-1" d="M316,3.86a3.58,3.58,0,0,0-1.49,2.89V69.24a3.52,3.52,0,0,0,1.56,2.89,5.84,5.84,0,0,0,3.59,1.18,5.74,5.74,0,0,0,3.66-1.18,3.58,3.58,0,0,0,1.49-2.89V6.75a3.52,3.52,0,0,0-1.56-2.89,6.16,6.16,0,0,0-7.25,0"/></clipPath></defs><title>logo-dark</title><path class="cls-2" d="M124.85,45.76l-.17.08.3.19.06-.11Z"/><path class="cls-2" d="M125.2,20.57a0,0,0,0,1,0,0v0Z"/><path class="cls-2" d="M156.78,19.05A61.69,61.69,0,0,0,133.16,3.78a53.62,53.62,0,0,0-30-2,91,91,0,0,0-26,9.75A46.43,46.43,0,0,0,62.71,24.23c-6.5,9.1-6.58,18.09-4.47,23.48,2.52,6.39,7.86,11,15.41,13.41A37.5,37.5,0,0,0,84,62.8c4.34,6.85,9.51,10.29,15.85,10.48,5.52.19,11-2.14,15.87-4.17,1.27-.54,2.47-1.06,3.63-1.49,1.87-.73,7.67,3.57,11.16,6.88l1.71,1.62L131,70.84l11.33,8.51L136.52,64.8A20.38,20.38,0,0,0,154.18,61a13,13,0,0,1,3.5-1.52c3.65-1.22,8.69-2.92,10.29-8.61C170.68,41.16,166.51,29.24,156.78,19.05Zm9.75,19.4-3.11-2.12a3.36,3.36,0,0,0,.19-1.16,3.48,3.48,0,0,0-2-3.17l1.06-2.82A35.49,35.49,0,0,1,166.53,38.45Zm-10.78-18.4a51.74,51.74,0,0,1,6.13,7.78v0l-1.41,3.79a1.12,1.12,0,0,0-.44-.06,3.47,3.47,0,0,0-2.6,1.14l-11.67-6.09,5.47-10.84A55.11,55.11,0,0,1,155.75,20.05ZM107,49.2l7.45-8.45a3.44,3.44,0,0,0,1.87.54,3.47,3.47,0,0,0,2.36-.89l6.15,5.36.19.16L125,46,116.67,58l-9.08-5.34a3.19,3.19,0,0,0,.22-1.16A3.54,3.54,0,0,0,107,49.2Zm-5.17,4.9L98.09,60,89,49.39l11.59,2v.08A3.38,3.38,0,0,0,101.85,54.1Zm-1-3.92L88.47,48,94,38.69a3.23,3.23,0,0,0,1.19.22,4,4,0,0,0,1.17-.19l5.55,9.94,0,0A3.09,3.09,0,0,0,100.88,50.18Zm-23.44-10L63.36,51.75l2.49-13.38a3.63,3.63,0,0,0,3.28-2.17l7.85,2v.22A3.43,3.43,0,0,0,77.44,40.15ZM77.28,37,69.4,35a.72.72,0,0,0,0-.25,3.69,3.69,0,0,0-.9-2.35l14.2-12.65a3.87,3.87,0,0,0,.94.51L80.61,34.84h0A3.62,3.62,0,0,0,77.28,37Zm7.61-16.49h0a3.25,3.25,0,0,0,1.14-.19l6.88,12.24a3.54,3.54,0,0,0-1.33,2.76v.19l-7.69,1.63v0a3.57,3.57,0,0,0-2.09-2Zm3.58-4.09,12.27-4.25A3.64,3.64,0,0,0,103.88,14H104l3,15L88.31,18.1a3.66,3.66,0,0,0,.21-1.21A2.63,2.63,0,0,0,88.47,16.4Zm34.37,2.25L108.22,29.18l-3-15.44a3.81,3.81,0,0,0,1.87-1.7l15.44,4.63h0a1.27,1.27,0,0,0-.05.43A3.82,3.82,0,0,0,122.84,18.65Zm2.36,1.92h0v0a.86.86,0,0,0,.21,0l-.19,23.87-5.77-5,0,0a3.24,3.24,0,0,0,.48-1.73,3.6,3.6,0,0,0-1.51-2.93l6.8-14.16A0,0,0,0,0,125.2,20.57Zm-1.08-.46-6.8,14.11v0a3,3,0,0,0-1-.16,3.4,3.4,0,0,0-2.19.78l0,0-5.34-4.57,14.77-10.62h0a2.17,2.17,0,0,0,.55.43Zm-17.72,10-8.1,3.33a3.62,3.62,0,0,0-3.09-1.73,3.41,3.41,0,0,0-1.21.19L87.14,19.7a2.31,2.31,0,0,0,.54-.54ZM84.19,38.42v-.14l7.69-1.59a3.7,3.7,0,0,0,1.06,1.4l-5.5,9.27-4.39-6.31A3.56,3.56,0,0,0,84.19,38.42Zm13.27-.3a3.69,3.69,0,0,0,1.36-2.82,3.34,3.34,0,0,0-.08-.7l8.93-3.66,5.64,4.83a3.55,3.55,0,0,0-.57,1.92,3.5,3.5,0,0,0,.81,2.25l-7.45,8.45a3.45,3.45,0,0,0-1.89-.54,3.72,3.72,0,0,0-1.22.21ZM126,46.65l11.59,7.13a3.39,3.39,0,0,0-.3,1.38L118.16,58Zm10.64-8.28-10.21,6.36.19-24.08a3.5,3.5,0,0,0,1-.3l9.8,14.06a3.5,3.5,0,0,0-1.05,2.52A3.7,3.7,0,0,0,136.68,38.37ZM127,45.84l10.32-6.45a3.44,3.44,0,0,0,2.22,1.09l.52,11.27a3.15,3.15,0,0,0-1.76,1Zm13-12.49a3.61,3.61,0,0,0-1.55.36v0l-9.8-14c.11-.11.19-.22.3-.35l15.19,7.88v0L141,33.49A3.66,3.66,0,0,0,140,33.35Zm16.52,1.17L143.43,36a3.31,3.31,0,0,0-1.36-2l3.15-6.28,11.51,6A2.47,2.47,0,0,0,156.51,34.52Zm.38,2.38L150,44.41l-6.93-5.69a3.18,3.18,0,0,0,.46-1.49l12.94-1.46A2.91,2.91,0,0,0,156.89,36.9Zm-14.6,2.77,6.88,5.66-6.34,6.88a3,3,0,0,0-1.51-.52l-.52-11.27A3.11,3.11,0,0,0,142.29,39.67Zm7.83,6.44,2.44,2L149.14,55l-4.68-.16a3.08,3.08,0,0,0-.71-1.76Zm.84-.92,6.72-7.31h0v0L153.13,47Zm-6.29-19.1-15.16-7.9a2.43,2.43,0,0,0,.16-.82L150,15.45Zm-12-21a60.12,60.12,0,0,1,16.65,9.13l-19.77,1.87h0a3.47,3.47,0,0,0-2.11-2.36l2.09-9.67C130.56,4.4,131.62,4.75,132.68,5.13ZM112.58,2a51.81,51.81,0,0,1,15.73,1.79L126.2,13.5h-.11a3.6,3.6,0,0,0-3.19,2h0l-15.44-4.61a2.63,2.63,0,0,0,0-.49,3.51,3.51,0,0,0-.86-2.32L112.55,2ZM103.5,3.18a50.73,50.73,0,0,1,7.23-1.11h0l-5.09,5.2a3.67,3.67,0,0,0-1.79-.49,3.63,3.63,0,0,0-3.09,1.76l-7.36-2.6C96.92,4.8,100.33,3.88,103.5,3.18ZM91.56,6.57l8.8,3.14a3.07,3.07,0,0,0-.08.67c0,.19,0,.41,0,.6L88.09,15.23a3.58,3.58,0,0,0-6.69.9l-8.18-.3A71.25,71.25,0,0,1,91.56,6.57ZM71.68,17l9.67.38a3.88,3.88,0,0,0,.54,1.47L67.56,31.62a3.76,3.76,0,0,0-1.74-.43h-.21L64,25A40.18,40.18,0,0,1,71.68,17ZM63,26.31l1.39,5.15a3.62,3.62,0,0,0-2.2,3.3c0,.17,0,.33,0,.49l-3.39,1.08A28.45,28.45,0,0,1,63,26.31ZM58.65,37.72v0l4-1.25a3.67,3.67,0,0,0,2,1.74L62.11,51.75a20.16,20.16,0,0,1-2.54-4.58A19.11,19.11,0,0,1,58.65,37.72Zm15.44,22a24,24,0,0,1-10.7-6.44L78.2,41.13a4.27,4.27,0,0,0,1,.62L75.47,60.14C75,60,74.55,59.9,74.09,59.76ZM84,61.34h0a33.92,33.92,0,0,1-7.26-.9L80.4,42h.19a3.55,3.55,0,0,0,1.43-.3l4.8,6.91Zm3.87-11.49,9.07,10.67-11.73.87Zm12.05,22c-5.63-.17-10.32-3.2-14.33-9.24l12.17-.92L101,71.85A10.27,10.27,0,0,1,99.87,71.85Zm-1-10.73v0l4-6.31a3.69,3.69,0,0,0,1.33.24A3.47,3.47,0,0,0,107,53.67l8.8,5.2L102.15,71.41Zm16.28,6.66a51.14,51.14,0,0,1-11.29,3.77l12.7-11.65,2,6.5C117.4,66.81,116.29,67.29,115.12,67.78Zm26.49-3.84a18.73,18.73,0,0,1-6.06-.93L134,62.45l5.06,12.67-10.32-7.74,1,4.57c-.84-.73-2-1.62-3.15-2.52-3.08-2.27-5.36-3.38-7-3.33l-2.06-6.82h0l19.88-2.9a3.59,3.59,0,0,0,3.42,2.44,2.92,2.92,0,0,0,1.08-.19l2.17,5.14A21.33,21.33,0,0,1,141.61,63.94Zm1.49-5.88a3.21,3.21,0,0,0,1.3-2l4.12.16-3.36,6.72Zm14.12.08a13,13,0,0,0-3.93,1.73,18.41,18.41,0,0,1-7,3.5l3.57-7.15,11.16.43A33.9,33.9,0,0,1,157.22,58.14ZM150.5,55l3-6.09,7.94,6.5Zm3.63-7.23,4.63-9.26a3.12,3.12,0,0,0,1.22.24l2.49,15.9Zm12.46,2.71a8.74,8.74,0,0,1-2.85,4.44L161.2,38.56a3.16,3.16,0,0,0,1.6-1.14l4.11,2.79A23.07,23.07,0,0,1,166.59,50.5Z"/><path class="cls-2" d="M16.82,2.48A26.37,26.37,0,0,0,8.35,7.92,27,27,0,0,0,2.63,16,23.07,23.07,0,0,0,.5,25.81V50.28A23,23,0,0,0,2.63,60.1a26.35,26.35,0,0,0,5.78,8.07,26.9,26.9,0,0,0,8.53,5.45,28.22,28.22,0,0,0,18.4.8,26.53,26.53,0,0,0,7.07-3.32,27.37,27.37,0,0,0,5.66-5A23.73,23.73,0,0,0,52,59.68a4,4,0,0,0,.34-1.61,4,4,0,0,0-1.18-2.77A4,4,0,0,0,48.07,54a4.81,4.81,0,0,0-2.19.53,3.07,3.07,0,0,0-1.51,1.71,18.17,18.17,0,0,1-6.51,8.06,17.9,17.9,0,0,1-10.55,3.16,18.44,18.44,0,0,1-7.06-1.39,19.37,19.37,0,0,1-5.84-3.69A17.3,17.3,0,0,1,10.49,57,15.56,15.56,0,0,1,9,50.28V25.81a16.16,16.16,0,0,1,1.4-6.67,16.41,16.41,0,0,1,3.87-5.45A19.15,19.15,0,0,1,20.14,10a18.51,18.51,0,0,1,7.17-1.39,17.87,17.87,0,0,1,10.33,3.15,18,18,0,0,1,6.62,8,4,4,0,0,0,3.81,2.35,4,4,0,0,0,3.14-1.28A4.15,4.15,0,0,0,52.34,18a5.55,5.55,0,0,0-.12-1.12,1.57,1.57,0,0,0-.45-.91,25.63,25.63,0,0,0-4-6.25A26.92,26.92,0,0,0,35.11,1.62,27,27,0,0,0,27.31.5a27.66,27.66,0,0,0-10.49,2"/><g class="cls-3"><rect class="cls-1" x="0.5" y="0.5" width="51.84" height="75.09"/></g><path class="cls-4" d="M16.82,2.48A26.37,26.37,0,0,0,8.35,7.92,27,27,0,0,0,2.63,16,23.07,23.07,0,0,0,.5,25.81V50.28A23,23,0,0,0,2.63,60.1a26.35,26.35,0,0,0,5.78,8.07,26.9,26.9,0,0,0,8.53,5.45,28.22,28.22,0,0,0,18.4.8,26.53,26.53,0,0,0,7.07-3.32,27.37,27.37,0,0,0,5.66-5A23.73,23.73,0,0,0,52,59.68a4,4,0,0,0,.34-1.61,4,4,0,0,0-1.18-2.77A4,4,0,0,0,48.07,54a4.81,4.81,0,0,0-2.19.53,3.07,3.07,0,0,0-1.51,1.71,18.17,18.17,0,0,1-6.51,8.06,17.9,17.9,0,0,1-10.55,3.16,18.44,18.44,0,0,1-7.06-1.39,19.37,19.37,0,0,1-5.84-3.69A17.3,17.3,0,0,1,10.49,57,15.56,15.56,0,0,1,9,50.28V25.81a16.16,16.16,0,0,1,1.4-6.67,16.41,16.41,0,0,1,3.87-5.45A19.15,19.15,0,0,1,20.14,10a18.51,18.51,0,0,1,7.17-1.39,17.87,17.87,0,0,1,10.33,3.15,18,18,0,0,1,6.62,8,4,4,0,0,0,3.81,2.35,4,4,0,0,0,3.14-1.28A4.15,4.15,0,0,0,52.34,18a5.55,5.55,0,0,0-.12-1.12,1.57,1.57,0,0,0-.45-.91,25.63,25.63,0,0,0-4-6.25A26.92,26.92,0,0,0,35.11,1.62,27,27,0,0,0,27.31.5a27.66,27.66,0,0,0-10.49,2"/><path class="cls-2" d="M191.12,2.58A26.4,26.4,0,0,0,182.65,8a27,27,0,0,0-5.71,8.06,23.11,23.11,0,0,0-2.13,9.83V50.28a23,23,0,0,0,2.13,9.82,26.32,26.32,0,0,0,5.77,8.07,27,27,0,0,0,8.52,5.45,28.25,28.25,0,0,0,20.73,0,26.25,26.25,0,0,0,8.46-5.45,26.82,26.82,0,0,0,5.71-8.07,23,23,0,0,0,2.13-9.82V41A3.82,3.82,0,0,0,227,38.1a4.24,4.24,0,0,0-3-1.18H211.12a4.12,4.12,0,0,0-3,1.23,3.94,3.94,0,0,0,0,5.72,4.23,4.23,0,0,0,3,1.17h8.63v5.24a16.32,16.32,0,0,1-1.4,6.67,16.7,16.7,0,0,1-3.87,5.45,19.29,19.29,0,0,1-5.77,3.68,18.78,18.78,0,0,1-14.18,0,19,19,0,0,1-5.82-3.68A17.14,17.14,0,0,1,184.79,57a15.6,15.6,0,0,1-1.46-6.67V25.92a16.12,16.12,0,0,1,1.4-6.67,16.31,16.31,0,0,1,3.87-5.45,19.27,19.27,0,0,1,5.82-3.69,18.69,18.69,0,0,1,7.17-1.39,17.59,17.59,0,0,1,10.26,3.15,19,19,0,0,1,6.66,8,3.83,3.83,0,0,0,1.63,1.76,4.36,4.36,0,0,0,2.18.59,4,4,0,0,0,3.14-1.28,4.12,4.12,0,0,0,1.12-2.78,4.57,4.57,0,0,0-.34-1.71,23.13,23.13,0,0,0-4-6.41,27.54,27.54,0,0,0-12.72-8.22,27,27,0,0,0-8-1.18,27.56,27.56,0,0,0-10.47,2"/><g class="cls-5"><rect class="cls-1" x="174.81" y="0.6" width="53.45" height="74.99"/></g><path class="cls-4" d="M191.12,2.58A26.4,26.4,0,0,0,182.65,8a27,27,0,0,0-5.71,8.06,23.11,23.11,0,0,0-2.13,9.83V50.28a23,23,0,0,0,2.13,9.82,26.32,26.32,0,0,0,5.77,8.07,27,27,0,0,0,8.52,5.45,28.25,28.25,0,0,0,20.73,0,26.25,26.25,0,0,0,8.46-5.45,26.82,26.82,0,0,0,5.71-8.07,23,23,0,0,0,2.13-9.82V41A3.82,3.82,0,0,0,227,38.1a4.24,4.24,0,0,0-3-1.18H211.12a4.12,4.12,0,0,0-3,1.23,3.94,3.94,0,0,0,0,5.72,4.23,4.23,0,0,0,3,1.17h8.63v5.24a16.32,16.32,0,0,1-1.4,6.67,16.7,16.7,0,0,1-3.87,5.45,19.29,19.29,0,0,1-5.77,3.68,18.78,18.78,0,0,1-14.18,0,19,19,0,0,1-5.82-3.68A17.14,17.14,0,0,1,184.79,57a15.6,15.6,0,0,1-1.46-6.67V25.92a16.12,16.12,0,0,1,1.4-6.67,16.31,16.31,0,0,1,3.87-5.45,19.27,19.27,0,0,1,5.82-3.69,18.69,18.69,0,0,1,7.17-1.39,17.59,17.59,0,0,1,10.26,3.15,19,19,0,0,1,6.66,8,3.83,3.83,0,0,0,1.63,1.76,4.36,4.36,0,0,0,2.18.59,4,4,0,0,0,3.14-1.28,4.12,4.12,0,0,0,1.12-2.78,4.57,4.57,0,0,0-.34-1.71,23.13,23.13,0,0,0-4-6.41,27.54,27.54,0,0,0-12.72-8.22,27,27,0,0,0-8-1.18,27.56,27.56,0,0,0-10.47,2"/><path class="cls-2" d="M257.74,4.4a27.49,27.49,0,0,0-8.46,5.46,26.23,26.23,0,0,0-5.71,8,23.17,23.17,0,0,0-2.13,9.85V69.34a3.76,3.76,0,0,0,1.29,2.89,4.24,4.24,0,0,0,3,1.18,4.19,4.19,0,0,0,3-1.18A3.84,3.84,0,0,0,250,69.34V27.73a16.38,16.38,0,0,1,1.4-6.69,16.85,16.85,0,0,1,3.87-5.46A19.52,19.52,0,0,1,261,11.89a18.78,18.78,0,0,1,14.18,0A19.27,19.27,0,0,1,281,15.58,17.64,17.64,0,0,1,284.92,21a15.94,15.94,0,0,1,1.45,6.69V69.34a3.76,3.76,0,0,0,1.29,2.89,4.4,4.4,0,0,0,6,0,3.84,3.84,0,0,0,1.23-2.89V27.73a23.17,23.17,0,0,0-2.13-9.85,25.91,25.91,0,0,0-5.77-8,28.27,28.27,0,0,0-8.52-5.46,27.48,27.48,0,0,0-20.73,0"/><g class="cls-6"><rect class="cls-1" x="241.44" y="2.37" width="53.45" height="71.04"/></g><path class="cls-4" d="M257.74,4.4a27.49,27.49,0,0,0-8.46,5.46,26.23,26.23,0,0,0-5.71,8,23.17,23.17,0,0,0-2.13,9.85V69.34a3.76,3.76,0,0,0,1.29,2.89,4.24,4.24,0,0,0,3,1.18,4.19,4.19,0,0,0,3-1.18A3.84,3.84,0,0,0,250,69.34V27.73a16.38,16.38,0,0,1,1.4-6.69,16.85,16.85,0,0,1,3.87-5.46A19.52,19.52,0,0,1,261,11.89a18.78,18.78,0,0,1,14.18,0A19.27,19.27,0,0,1,281,15.58,17.64,17.64,0,0,1,284.92,21a15.94,15.94,0,0,1,1.45,6.69V69.34a3.76,3.76,0,0,0,1.29,2.89,4.4,4.4,0,0,0,6,0,3.84,3.84,0,0,0,1.23-2.89V27.73a23.17,23.17,0,0,0-2.13-9.85,25.91,25.91,0,0,0-5.77-8,28.27,28.27,0,0,0-8.52-5.46,27.48,27.48,0,0,0-20.73,0"/><path class="cls-2" d="M343.58,2.79a4.12,4.12,0,0,0-3,1.23,3.88,3.88,0,0,0-1.23,2.83,3.82,3.82,0,0,0,1.23,2.89,4.2,4.2,0,0,0,3,1.18h18.15V69.34A3.76,3.76,0,0,0,363,72.23a4.26,4.26,0,0,0,3,1.18,4.19,4.19,0,0,0,3-1.18,3.81,3.81,0,0,0,1.24-2.89V10.92h18.26a4.13,4.13,0,0,0,3-1.23,3.91,3.91,0,0,0,1.23-2.84A3.82,3.82,0,0,0,391.54,4a4.21,4.21,0,0,0-3-1.18Z"/><g class="cls-7"><rect class="cls-1" x="339.32" y="2.79" width="53.45" height="70.62"/></g><path class="cls-4" d="M343.58,2.79a4.12,4.12,0,0,0-3,1.23,3.88,3.88,0,0,0-1.23,2.83,3.82,3.82,0,0,0,1.23,2.89,4.2,4.2,0,0,0,3,1.18h18.15V69.34A3.76,3.76,0,0,0,363,72.23a4.26,4.26,0,0,0,3,1.18,4.19,4.19,0,0,0,3-1.18,3.81,3.81,0,0,0,1.24-2.89V10.92h18.26a4.13,4.13,0,0,0,3-1.23,3.91,3.91,0,0,0,1.23-2.84A3.82,3.82,0,0,0,391.54,4a4.21,4.21,0,0,0-3-1.18Z"/><path class="cls-2" d="M411.32,4a3.55,3.55,0,0,0-1.49,2.88V69.34a3.51,3.51,0,0,0,1.56,2.89A5.78,5.78,0,0,0,415,73.41a5.72,5.72,0,0,0,3.66-1.18,3.57,3.57,0,0,0,1.49-2.89V6.85A3.49,3.49,0,0,0,418.57,4,5.76,5.76,0,0,0,415,2.79,5.7,5.7,0,0,0,411.32,4"/><g class="cls-8"><rect class="cls-1" x="409.83" y="2.79" width="10.3" height="70.62" rx="5.15"/></g><path class="cls-4" d="M411.32,4a3.55,3.55,0,0,0-1.49,2.88V69.34a3.51,3.51,0,0,0,1.56,2.89A5.78,5.78,0,0,0,415,73.41a5.72,5.72,0,0,0,3.66-1.18,3.57,3.57,0,0,0,1.49-2.89V6.85A3.49,3.49,0,0,0,418.57,4,5.76,5.76,0,0,0,415,2.79,5.7,5.7,0,0,0,411.32,4"/><path class="cls-2" d="M492.49,5.14,468.23,59.6,444,5.14a4.14,4.14,0,0,0-1.62-1.81,4.28,4.28,0,0,0-2.28-.65,3.75,3.75,0,0,0-3,1.29A4.16,4.16,0,0,0,436,6.75a3.88,3.88,0,0,0,.33,1.6l28,63a3.92,3.92,0,0,0,3.89,2.46,4.78,4.78,0,0,0,1.67-.32,4,4,0,0,0,2.23-2.14l28-63a3.88,3.88,0,0,0,.33-1.6A4.16,4.16,0,0,0,499.39,4a3.79,3.79,0,0,0-3-1.29,4,4,0,0,0-3.89,2.46"/><g class="cls-9"><rect class="cls-1" x="435.97" y="2.68" width="64.53" height="71.14"/></g><path class="cls-4" d="M492.49,5.14,468.23,59.6,444,5.14a4.14,4.14,0,0,0-1.62-1.81,4.28,4.28,0,0,0-2.28-.65,3.75,3.75,0,0,0-3,1.29A4.16,4.16,0,0,0,436,6.75a3.88,3.88,0,0,0,.33,1.6l28,63a3.92,3.92,0,0,0,3.89,2.46,4.78,4.78,0,0,0,1.67-.32,4,4,0,0,0,2.23-2.14l28-63a3.88,3.88,0,0,0,.33-1.6A4.16,4.16,0,0,0,499.39,4a3.79,3.79,0,0,0-3-1.29,4,4,0,0,0-3.89,2.46"/><path class="cls-2" d="M316,3.86a3.58,3.58,0,0,0-1.49,2.89V69.24a3.52,3.52,0,0,0,1.56,2.89,5.84,5.84,0,0,0,3.59,1.18,5.74,5.74,0,0,0,3.66-1.18,3.58,3.58,0,0,0,1.49-2.89V6.75a3.52,3.52,0,0,0-1.56-2.89,6.16,6.16,0,0,0-7.25,0"/><g class="cls-10"><rect class="cls-1" x="314.5" y="2.68" width="10.3" height="70.62"/></g><path class="cls-4" d="M316,3.86a3.58,3.58,0,0,0-1.49,2.89V69.24a3.52,3.52,0,0,0,1.56,2.89,5.84,5.84,0,0,0,3.59,1.18,5.74,5.74,0,0,0,3.66-1.18,3.58,3.58,0,0,0,1.49-2.89V6.75a3.52,3.52,0,0,0-1.56-2.89,6.16,6.16,0,0,0-7.25,0"/></svg>